<mxfile host="app.diagrams.net" modified="2021-06-13T19:37:35.828Z" agent="5.0 (Macintosh; Intel Mac OS X 10_15_7) AppleWebKit/537.36 (KHTML, like Gecko) Chrome/91.0.4472.77 Safari/537.36" etag="ZVIyOFGU_7l1lW5Zch6Q" version="14.7.7" type="github">
  <diagram id="A4IyuPG652XMWRJrlPqJ" name="Page-1">
    <mxGraphModel dx="2017" dy="769" grid="1" gridSize="10" guides="1" tooltips="1" connect="1" arrows="1" fold="1" page="1" pageScale="1" pageWidth="850" pageHeight="1100" math="0" shadow="0">
      <root>
        <mxCell id="0" />
        <mxCell id="1" parent="0" />
        <mxCell id="AMxbkQby5Cz6vdSXOQPv-2" value="nRF Sender A" style="rounded=0;whiteSpace=wrap;html=1;align=center;" parent="1" vertex="1">
          <mxGeometry x="70" y="80" width="120" height="60" as="geometry" />
        </mxCell>
        <mxCell id="AMxbkQby5Cz6vdSXOQPv-3" value="Address: A" style="text;html=1;align=center;verticalAlign=middle;resizable=0;points=[];autosize=1;strokeColor=none;" parent="1" vertex="1">
          <mxGeometry x="95" y="60" width="70" height="20" as="geometry" />
        </mxCell>
        <mxCell id="xbEQKNHG6fYIvZJpdzs0-14" style="rounded=0;orthogonalLoop=1;jettySize=auto;html=1;entryX=0.011;entryY=0.672;entryDx=0;entryDy=0;entryPerimeter=0;endArrow=classic;endFill=1;" parent="1" source="AMxbkQby5Cz6vdSXOQPv-9" target="xbEQKNHG6fYIvZJpdzs0-11" edge="1">
          <mxGeometry relative="1" as="geometry" />
        </mxCell>
        <mxCell id="AMxbkQby5Cz6vdSXOQPv-9" value="TX: 1" style="text;html=1;align=center;verticalAlign=middle;resizable=0;points=[];autosize=1;strokeColor=none;" parent="1" vertex="1">
          <mxGeometry x="150" y="80" width="40" height="20" as="geometry" />
        </mxCell>
        <mxCell id="AMxbkQby5Cz6vdSXOQPv-10" value="RX: 1" style="text;html=1;align=center;verticalAlign=middle;resizable=0;points=[];autosize=1;strokeColor=none;" parent="1" vertex="1">
          <mxGeometry x="145" y="120" width="50" height="20" as="geometry" />
        </mxCell>
        <mxCell id="xbEQKNHG6fYIvZJpdzs0-3" style="edgeStyle=orthogonalEdgeStyle;rounded=0;orthogonalLoop=1;jettySize=auto;html=1;exitX=0.894;exitY=1.034;exitDx=0;exitDy=0;entryX=0.894;entryY=-0.057;entryDx=0;entryDy=0;endArrow=none;endFill=0;dashed=1;dashPattern=1 4;exitPerimeter=0;entryPerimeter=0;" parent="1" source="xbEQKNHG6fYIvZJpdzs0-1" target="xbEQKNHG6fYIvZJpdzs0-2" edge="1">
          <mxGeometry relative="1" as="geometry" />
        </mxCell>
        <mxCell id="xbEQKNHG6fYIvZJpdzs0-1" value="nRF Sender B" style="rounded=0;whiteSpace=wrap;html=1;align=center;" parent="1" vertex="1">
          <mxGeometry x="70" y="170" width="120" height="60" as="geometry" />
        </mxCell>
        <mxCell id="xbEQKNHG6fYIvZJpdzs0-2" value="nRF Sender n" style="rounded=0;whiteSpace=wrap;html=1;align=center;" parent="1" vertex="1">
          <mxGeometry x="70" y="270" width="120" height="60" as="geometry" />
        </mxCell>
        <mxCell id="xbEQKNHG6fYIvZJpdzs0-16" style="edgeStyle=none;rounded=0;orthogonalLoop=1;jettySize=auto;html=1;endArrow=classic;endFill=1;" parent="1" source="xbEQKNHG6fYIvZJpdzs0-4" target="xbEQKNHG6fYIvZJpdzs0-12" edge="1">
          <mxGeometry relative="1" as="geometry" />
        </mxCell>
        <mxCell id="xbEQKNHG6fYIvZJpdzs0-4" value="TX: 2" style="text;html=1;align=center;verticalAlign=middle;resizable=0;points=[];autosize=1;strokeColor=none;" parent="1" vertex="1">
          <mxGeometry x="150" y="170" width="40" height="20" as="geometry" />
        </mxCell>
        <mxCell id="xbEQKNHG6fYIvZJpdzs0-5" value="RX: 2" style="text;html=1;align=center;verticalAlign=middle;resizable=0;points=[];autosize=1;strokeColor=none;" parent="1" vertex="1">
          <mxGeometry x="145" y="210" width="50" height="20" as="geometry" />
        </mxCell>
        <mxCell id="xbEQKNHG6fYIvZJpdzs0-18" style="edgeStyle=none;rounded=0;orthogonalLoop=1;jettySize=auto;html=1;entryX=-0.003;entryY=-0.052;entryDx=0;entryDy=0;entryPerimeter=0;endArrow=classic;endFill=1;" parent="1" source="xbEQKNHG6fYIvZJpdzs0-6" target="xbEQKNHG6fYIvZJpdzs0-13" edge="1">
          <mxGeometry relative="1" as="geometry" />
        </mxCell>
        <mxCell id="xbEQKNHG6fYIvZJpdzs0-6" value="TX: n" style="text;html=1;align=center;verticalAlign=middle;resizable=0;points=[];autosize=1;strokeColor=none;" parent="1" vertex="1">
          <mxGeometry x="150" y="270" width="40" height="20" as="geometry" />
        </mxCell>
        <mxCell id="xbEQKNHG6fYIvZJpdzs0-7" value="RX: n" style="text;html=1;align=center;verticalAlign=middle;resizable=0;points=[];autosize=1;strokeColor=none;" parent="1" vertex="1">
          <mxGeometry x="145" y="310" width="50" height="20" as="geometry" />
        </mxCell>
        <mxCell id="xbEQKNHG6fYIvZJpdzs0-8" value="Address: B" style="text;html=1;align=center;verticalAlign=middle;resizable=0;points=[];autosize=1;strokeColor=none;" parent="1" vertex="1">
          <mxGeometry x="95" y="150" width="70" height="20" as="geometry" />
        </mxCell>
        <mxCell id="xbEQKNHG6fYIvZJpdzs0-9" value="Address: n" style="text;html=1;align=center;verticalAlign=middle;resizable=0;points=[];autosize=1;strokeColor=none;" parent="1" vertex="1">
          <mxGeometry x="95" y="250" width="70" height="20" as="geometry" />
        </mxCell>
        <mxCell id="xbEQKNHG6fYIvZJpdzs0-15" style="edgeStyle=none;rounded=0;orthogonalLoop=1;jettySize=auto;html=1;exitX=0;exitY=0.25;exitDx=0;exitDy=0;entryX=1;entryY=0.75;entryDx=0;entryDy=0;endArrow=classic;endFill=1;dashed=1;" parent="1" source="xbEQKNHG6fYIvZJpdzs0-10" target="AMxbkQby5Cz6vdSXOQPv-2" edge="1">
          <mxGeometry relative="1" as="geometry" />
        </mxCell>
        <mxCell id="eWyC0Qp_hFsdUCByXmqa-1" value="ACK" style="edgeLabel;html=1;align=center;verticalAlign=middle;resizable=0;points=[];" vertex="1" connectable="0" parent="xbEQKNHG6fYIvZJpdzs0-15">
          <mxGeometry x="0.2837" y="1" relative="1" as="geometry">
            <mxPoint y="-12" as="offset" />
          </mxGeometry>
        </mxCell>
        <mxCell id="xbEQKNHG6fYIvZJpdzs0-17" style="edgeStyle=none;rounded=0;orthogonalLoop=1;jettySize=auto;html=1;exitX=-0.001;exitY=0.629;exitDx=0;exitDy=0;endArrow=classic;endFill=1;exitPerimeter=0;dashed=1;" parent="1" source="xbEQKNHG6fYIvZJpdzs0-10" edge="1">
          <mxGeometry relative="1" as="geometry">
            <mxPoint x="190" y="220" as="targetPoint" />
          </mxGeometry>
        </mxCell>
        <mxCell id="eWyC0Qp_hFsdUCByXmqa-2" value="ACK" style="edgeLabel;html=1;align=center;verticalAlign=middle;resizable=0;points=[];" vertex="1" connectable="0" parent="xbEQKNHG6fYIvZJpdzs0-17">
          <mxGeometry x="0.2584" y="-4" relative="1" as="geometry">
            <mxPoint y="-4" as="offset" />
          </mxGeometry>
        </mxCell>
        <mxCell id="xbEQKNHG6fYIvZJpdzs0-10" value="nRF Hub" style="rounded=0;whiteSpace=wrap;html=1;" parent="1" vertex="1">
          <mxGeometry x="425" y="140" width="155" height="120" as="geometry" />
        </mxCell>
        <mxCell id="xbEQKNHG6fYIvZJpdzs0-11" value="RX: 1" style="text;html=1;align=center;verticalAlign=middle;resizable=0;points=[];autosize=1;strokeColor=none;" parent="1" vertex="1">
          <mxGeometry x="425" y="140" width="50" height="20" as="geometry" />
        </mxCell>
        <mxCell id="xbEQKNHG6fYIvZJpdzs0-12" value="RX: 2" style="text;html=1;align=center;verticalAlign=middle;resizable=0;points=[];autosize=1;strokeColor=none;" parent="1" vertex="1">
          <mxGeometry x="425" y="190" width="50" height="20" as="geometry" />
        </mxCell>
        <mxCell id="xbEQKNHG6fYIvZJpdzs0-19" style="edgeStyle=none;rounded=0;orthogonalLoop=1;jettySize=auto;html=1;endArrow=classic;endFill=1;entryX=1;entryY=0.75;entryDx=0;entryDy=0;dashed=1;" parent="1" source="xbEQKNHG6fYIvZJpdzs0-13" target="xbEQKNHG6fYIvZJpdzs0-2" edge="1">
          <mxGeometry relative="1" as="geometry" />
        </mxCell>
        <mxCell id="eWyC0Qp_hFsdUCByXmqa-3" value="ACK" style="edgeLabel;html=1;align=center;verticalAlign=middle;resizable=0;points=[];" vertex="1" connectable="0" parent="xbEQKNHG6fYIvZJpdzs0-19">
          <mxGeometry x="0.239" y="2" relative="1" as="geometry">
            <mxPoint x="10" y="-15" as="offset" />
          </mxGeometry>
        </mxCell>
        <mxCell id="xbEQKNHG6fYIvZJpdzs0-13" value="RX: n" style="text;html=1;align=center;verticalAlign=middle;resizable=0;points=[];autosize=1;strokeColor=none;" parent="1" vertex="1">
          <mxGeometry x="425" y="240" width="50" height="20" as="geometry" />
        </mxCell>
      </root>
    </mxGraphModel>
  </diagram>
</mxfile>
